<svg xmlns="http://www.w3.org/2000/svg" viewBox="0 0 24 24" fill="currentColor"><path d="M12 10a2 2 0 100 4 2 2 0 000-4z"/><path fill-rule="evenodd" d="M2 5a2 2 0 012-2h3.25a.75.75 0 00.75-.75A.75.75 0 007.25 2H4a3 3 0 00-3 3v3.25a.75.75 0 00.75.75.75.75 0 00.75-.75V5zM17.25 2a.75.75 0 00-.75.75.75.75 0 00.75.75H20a2 2 0 012 2v3.25a.75.75 0 00.75.75.75.75 0 00.75-.75V5a3 3 0 00-3-3h-3.25zM22 19a3 3 0 00-3-3h-3.25a.75.75 0 00-.75.75.75.75 0 00.75.75H19a2 2 0 012 2v3.25a.75.75 0 00.75.75.75.75 0 00.75-.75V19zM7.25 22a.75.75 0 00-.75-.75.75.75 0 00.75-.75H4a2 2 0 01-2-2v-3.25a.75.75 0 00-.75-.75.75.75 0 00-.75.75V19a3 3 0 003 3h3.25zM12 7.5a4.5 4.5 0 100 9 4.5 4.5 0 000-9z" clip-rule="evenodd"/></svg>